<svg id="Logo" xmlns="http://www.w3.org/2000/svg" xmlns:xlink="http://www.w3.org/1999/xlink" viewBox="0 0 134.11 116.5"><defs><style>.cls-1{fill:none;stroke-miterlimit:10;stroke:url(#linear-gradient);}.cls-2{fill:url(#linear-gradient-2);}</style><linearGradient id="linear-gradient" x1="19" y1="283.55" x2="115.71" y2="283.55" gradientTransform="matrix(1, 0, 0, -1, -19, 362)" gradientUnits="userSpaceOnUse"><stop offset="0" stop-color="#fff"/><stop offset="0.35" stop-color="#ff7317"/><stop offset="0.42" stop-color="#fa751c"/><stop offset="0.5" stop-color="#eb7c2b"/><stop offset="0.59" stop-color="#d28744"/><stop offset="0.69" stop-color="#af9666"/><stop offset="0.8" stop-color="#83aa92"/><stop offset="0.9" stop-color="#4dc2c8"/><stop offset="1" stop-color="#15dbff"/></linearGradient><linearGradient id="linear-gradient-2" x1="19.5" y1="304" x2="153.11" y2="304" xlink:href="#linear-gradient"/></defs><title>logo</title><polygon class="cls-1" points="0.5 43.5 0.5 116 96.21 116 96.21 44.79 82.43 44.79 82.43 63.17 54.87 63.17 54.87 44.79 41.08 44.79 41.08 96.48 54.87 96.48 54.87 76.95 82.43 77 82.43 102.22 13.5 102.22 13.52 53.5 20.13 48.13 5.13 40.96 0.5 43.5"/><polygon id="Colored" class="cls-2" points="13.52 53.5 0.5 43.5 68.65 0 134.11 43.5 134.11 116 121.48 116 121.5 53.5 68.65 18.38 13.52 53.5"/></svg>